<svg width="1440" height="900" viewBox="0 0 1440 900" fill="none" xmlns="http://www.w3.org/2000/svg">
<g clip-path="url(#clip0)">
<path d="M-441.73 739.937L-479.322 830.03L-571.907 791.49L-598.161 854.412L-505.574 892.952L-543.166 983.044L-484.942 1007.28L-447.35 917.188L-354.765 955.727L-328.511 892.805L-421.098 854.266L-383.506 764.173L-441.73 739.937Z" fill="#EBEBEB"/>
<path d="M-297.143 731.813L-317.699 761.528L-348.236 740.453L-362.592 761.206L-332.055 782.281L-352.611 811.996L-333.407 825.25L-312.851 795.535L-282.314 816.61L-267.958 795.856L-298.495 774.781L-277.939 745.066L-297.143 731.813Z" fill="#EBEBEB"/>
<path d="M-263.054 682.402L-274.917 684.407L-276.977 672.244L-285.263 673.645L-283.202 685.807L-295.065 687.812L-293.769 695.461L-281.906 693.456L-279.846 705.619L-271.561 704.218L-273.621 692.056L-261.758 690.051L-263.054 682.402Z" fill="#EBEBEB"/>
<path d="M-184.925 680.749L-195.352 682.511L-197.163 671.821L-204.445 673.052L-202.635 683.742L-213.061 685.504L-211.922 692.226L-201.496 690.464L-199.684 701.154L-192.402 699.923L-194.214 689.234L-183.787 687.471L-184.925 680.749Z" fill="#EBEBEB"/>
<path d="M-585.728 824.996L-616.539 869.535L-662.31 837.947L-683.829 869.053L-638.058 900.642L-668.869 945.181L-640.085 965.046L-609.274 920.507L-563.502 952.095L-541.983 920.989L-587.755 889.4L-556.944 844.861L-585.728 824.996Z" fill="#EBEBEB"/>
<path d="M-608.981 802.713L-621.635 821.005L-640.434 808.031L-649.272 820.807L-630.473 833.781L-643.127 852.073L-631.305 860.232L-618.651 841.94L-599.853 854.913L-591.015 842.137L-609.813 829.164L-597.159 810.871L-608.981 802.713Z" fill="#EBEBEB"/>
<path d="M-428.143 658.94L-444.09 681.187L-466.953 664.838L-478.091 680.375L-455.228 696.724L-471.175 718.971L-456.798 729.253L-440.851 707.006L-417.989 723.355L-406.85 707.818L-429.713 691.468L-413.766 669.221L-428.143 658.94Z" fill="#EBEBEB"/>
<path d="M-347.957 678.09L-360.366 695.402L-378.157 682.679L-386.824 694.77L-369.034 707.492L-381.443 724.804L-370.255 732.804L-357.846 715.493L-340.056 728.215L-331.388 716.125L-349.179 703.402L-336.77 686.091L-347.957 678.09Z" fill="#EBEBEB"/>
<path d="M-371.104 615.065L-371.75 628.881L-385.947 628.218L-386.399 637.866L-372.202 638.529L-372.849 652.343L-363.92 652.76L-363.274 638.946L-349.077 639.609L-348.624 629.959L-362.823 629.298L-362.177 615.482L-371.104 615.065Z" fill="#EBEBEB"/>
<path d="M-216.005 759.254L-224.181 770.659L-235.902 762.277L-241.611 770.243L-229.89 778.625L-238.066 790.031L-230.696 795.302L-222.52 783.896L-210.799 792.278L-205.09 784.313L-216.809 775.931L-208.634 764.525L-216.005 759.254Z" fill="#EBEBEB"/>
<path d="M-388.002 784.97L-403.344 808.714L-427.747 792.985L-438.462 809.569L-414.059 825.298L-429.401 849.043L-414.056 858.935L-398.714 835.19L-374.312 850.919L-363.597 834.335L-387.999 818.606L-372.658 794.861L-388.002 784.97Z" fill="#EBEBEB"/>
<path d="M-464.869 802.294L-478.871 814.679L-491.6 800.323L-501.381 808.973L-488.652 823.33L-502.656 835.715L-494.651 844.744L-480.648 832.358L-467.919 846.715L-458.139 838.064L-470.868 823.708L-456.865 811.322L-464.869 802.294Z" fill="#EBEBEB"/>
<path d="M-261.499 853.489L-299.125 876.322L-322.59 837.745L-348.868 853.691L-325.405 892.268L-363.032 915.101L-348.276 939.36L-310.649 916.528L-287.184 955.104L-260.905 939.158L-284.37 900.581L-246.743 877.749L-261.499 853.489Z" fill="#EBEBEB"/>
<path d="M-499.305 723.492L-513.22 742.903L-533.168 728.638L-542.884 742.194L-522.937 756.459L-536.85 775.87L-524.306 784.841L-510.392 765.43L-490.444 779.695L-480.728 766.139L-500.675 751.874L-486.76 732.463L-499.305 723.492Z" fill="#EBEBEB"/>
<path d="M799.813 773.401L812.505 870.178L713.051 883.191L721.916 950.781L821.37 937.768L834.064 1034.54L896.601 1026.36L883.912 929.584L983.372 916.57L974.504 848.98L875.044 861.994L862.354 765.217L799.813 773.401Z" fill="#EBEBEB"/>
<path d="M920.833 693.972L917.967 729.976L880.966 727.032L878.96 752.178L915.961 755.122L913.096 791.127L936.356 792.979L939.238 756.974L976.239 759.918L978.245 734.772L941.244 731.828L944.11 695.824L920.833 693.972Z" fill="#EBEBEB"/>
<path d="M925.53 634.149L916.28 641.826L908.383 632.333L901.919 637.692L909.816 647.185L900.55 654.861L905.517 660.829L914.767 653.154L922.664 662.647L929.128 657.286L921.231 647.794L930.497 640.119L925.53 634.149Z" fill="#EBEBEB"/>
<path d="M992.304 593.598L984.168 600.344L977.242 592L971.558 596.712L978.484 605.054L970.348 611.8L974.711 617.046L982.846 610.301L989.772 618.645L995.456 613.933L988.53 605.59L996.666 598.844L992.304 593.598Z" fill="#EBEBEB"/>
<path d="M770.914 696.514L768.282 723.749L740.294 721.05L738.455 740.071L766.445 742.77L763.812 770.004L781.412 771.701L784.044 744.467L812.034 747.165L813.871 728.144L785.883 725.446L788.515 698.211L770.914 696.514Z" fill="#EBEBEB"/>
<path d="M849.904 672.933L847.86 694.125L826.081 692.025L824.651 706.827L846.43 708.926L844.381 730.119L858.072 731.44L860.125 710.247L881.906 712.347L883.339 697.546L861.558 695.446L863.612 674.253L849.904 672.933Z" fill="#EBEBEB"/>
<path d="M798.248 629.991L804.622 642.268L792.005 648.803L796.458 657.378L809.074 650.842L815.449 663.119L823.384 659.008L817.009 646.731L829.625 640.196L825.173 631.623L812.556 638.157L806.181 625.88L798.248 629.991Z" fill="#EBEBEB"/>
<path d="M1004.82 677.088L1003.46 691.05L989.119 689.667L988.18 699.418L1002.52 700.802L1001.17 714.764L1010.2 715.634L1011.55 701.672L1025.9 703.056L1026.84 693.304L1012.49 691.92L1013.84 677.958L1004.82 677.088Z" fill="#EBEBEB"/>
<path d="M868.898 785.463L867.545 813.69L838.538 812.299L837.59 832.014L866.605 833.405L865.236 861.633L883.482 862.507L884.835 834.28L913.844 835.671L914.799 815.956L885.791 814.565L887.144 786.338L868.898 785.463Z" fill="#EBEBEB"/>
<path d="M1012.75 781.406L991.651 820.003L951.991 798.373L937.264 825.33L976.924 846.959L955.828 885.556L980.777 899.158L1001.87 860.561L1041.53 882.191L1056.26 855.234L1016.6 833.605L1037.69 795.008L1012.75 781.406Z" fill="#EBEBEB"/>
<path d="M741.742 788.002L739.444 811.764L715.024 809.409L713.421 826.005L737.841 828.36L735.543 852.123L750.901 853.603L753.197 829.841L777.617 832.195L779.222 815.599L754.802 813.245L757.098 789.482L741.742 788.002Z" fill="#EBEBEB"/>
<path d="M1149.54 882.292L1206.6 961.527L1125.18 1020.03L1165.03 1075.37L1246.45 1016.87L1303.52 1096.1L1354.72 1059.31L1297.66 980.075L1379.09 921.574L1339.24 866.235L1257.81 924.737L1200.74 845.502L1149.54 882.292Z" fill="#EBEBEB"/>
<path d="M1218.48 755.089L1233.02 788.159L1199.04 803.066L1209.2 826.163L1243.17 811.256L1257.71 844.326L1279.09 834.952L1264.56 801.882L1298.53 786.974L1288.37 763.878L1254.4 778.785L1239.86 745.715L1218.48 755.089Z" fill="#EBEBEB"/>
<path d="M1194.26 700.179L1189.74 711.318L1178.3 706.687L1175.14 714.467L1186.59 719.097L1182.07 730.236L1189.27 733.148L1193.79 722.009L1205.23 726.639L1208.39 718.859L1196.94 714.229L1201.46 703.09L1194.26 700.179Z" fill="#EBEBEB"/>
<path d="M1087.64 828.24L1098.23 853.472L1072.31 864.333L1079.7 881.956L1105.63 871.095L1116.22 896.327L1132.54 889.497L1121.93 864.265L1147.87 853.404L1140.47 835.781L1114.53 846.642L1103.94 821.41L1087.64 828.24Z" fill="#EBEBEB"/>
<path d="M1146.04 770.108L1154.27 789.742L1134.1 798.194L1139.86 811.907L1160.03 803.455L1168.28 823.09L1180.97 817.775L1172.72 798.141L1192.9 789.689L1187.15 775.976L1166.96 784.427L1158.73 764.793L1146.04 770.108Z" fill="#EBEBEB"/>
<path d="M1080.17 756.719L1091.6 764.518L1083.6 776.241L1091.59 781.688L1099.6 769.964L1111.03 777.762L1116.08 770.39L1104.63 762.591L1112.65 750.867L1104.66 745.421L1096.65 757.145L1085.22 749.347L1080.17 756.719Z" fill="#EBEBEB"/>
<path d="M1284.44 700.499L1289.87 713.435L1276.58 719.003L1280.38 728.037L1293.68 722.469L1299.11 735.405L1307.46 731.904L1302.04 718.968L1315.33 713.4L1311.52 704.365L1298.23 709.933L1292.8 696.997L1284.44 700.499Z" fill="#EBEBEB"/>
<path d="M1340.88 788.626L1340.61 832.6L1295.41 832.309L1295.22 863.021L1340.41 863.311L1340.12 907.285L1368.54 907.467L1368.82 863.494L1414.03 863.784L1414.22 833.072L1369.03 832.782L1369.3 788.808L1340.88 788.626Z" fill="#EBEBEB"/>
<path d="M260.78 771.69L334.081 836.236L400.412 761.085L451.606 806.164L385.274 881.315L458.576 945.86L416.862 993.12L343.561 928.575L277.23 1003.73L226.037 958.647L292.368 883.496L219.066 818.95L260.78 771.69Z" fill="#EBEBEB"/>
<path d="M127.237 827.643L158.747 845.363L176.958 813.057L198.964 825.433L180.754 857.739L212.265 875.459L200.813 895.775L169.303 878.055L151.092 910.36L129.084 897.984L147.295 865.679L115.785 847.959L127.237 827.643Z" fill="#EBEBEB"/>
<path d="M74.925 798.138L86.4679 794.75L82.9876 782.915L91.0485 780.549L94.5305 792.384L106.075 788.996L108.264 796.439L96.7197 799.827L100.202 811.662L92.1391 814.028L88.6571 802.193L77.1142 805.581L74.925 798.138Z" fill="#EBEBEB"/>
<path d="M3.96411 830.832L14.1107 827.854L11.0507 817.452L18.1356 815.373L21.1956 825.775L31.3422 822.797L33.2671 829.339L23.1205 832.316L26.1805 842.719L19.0941 844.798L16.034 834.396L5.88898 837.374L3.96411 830.832Z" fill="#EBEBEB"/>
<path d="M427.531 785.159L474.76 811.718L502.055 763.297L535.041 781.846L507.745 830.268L554.976 856.828L537.811 887.279L490.581 860.719L463.287 909.141L430.3 890.591L457.595 842.169L410.366 815.609L427.531 785.159Z" fill="#EBEBEB"/>
<path d="M438.662 754.954L458.06 765.862L469.27 745.975L482.818 753.593L471.607 773.481L491.004 784.389L483.954 796.895L464.557 785.987L453.347 805.874L439.8 798.255L451.01 778.368L431.612 767.46L438.662 754.954Z" fill="#EBEBEB"/>
<path d="M213.047 704.821L237.139 717.843L250.52 693.143L267.347 702.239L253.964 726.939L278.056 739.961L269.64 755.494L245.548 742.471L232.165 767.171L215.339 758.076L228.723 733.376L204.631 720.353L213.047 704.821Z" fill="#EBEBEB"/>
<path d="M149.36 757.117L168.106 767.251L178.52 748.03L191.613 755.108L181.199 774.328L199.947 784.462L193.397 796.549L174.651 786.415L164.237 805.635L151.143 798.558L161.557 779.338L142.81 769.204L149.36 757.117Z" fill="#EBEBEB"/>
<path d="M142.53 690.333L149.169 702.47L161.642 695.663L166.278 704.139L153.805 710.946L160.444 723.082L152.602 727.363L145.962 715.226L133.49 722.033L128.853 713.557L141.325 706.75L134.685 694.614L142.53 690.333Z" fill="#EBEBEB"/>
<path d="M232.229 835.679L256.432 850.313L271.471 825.498L288.376 835.718L273.337 860.534L297.542 875.168L288.085 890.774L263.88 876.14L248.841 900.955L231.936 890.734L246.975 865.919L222.77 851.285L232.229 835.679Z" fill="#EBEBEB"/>
<path d="M308.926 817.625L326.945 822.633L332.093 804.158L344.677 807.656L339.531 826.13L357.551 831.139L354.314 842.757L336.294 837.749L331.147 856.224L318.563 852.726L323.709 834.251L305.689 829.243L308.926 817.625Z" fill="#EBEBEB"/>
<path d="M305.326 731.719L326.347 743.081L338.023 721.53L352.704 729.466L341.028 751.017L362.049 762.379L354.704 775.932L333.685 764.569L322.008 786.12L307.327 778.185L319.004 756.634L297.983 745.271L305.326 731.719Z" fill="#EBEBEB"/>
</g>
<defs>
<clipPath id="clip0">
<rect width="1440" height="900" fill="white"/>
</clipPath>
</defs>
</svg>
