<svg width="1415" height="308" viewBox="0 0 1415 308" fill="none" xmlns="http://www.w3.org/2000/svg">
<path d="M-441.73 147.937L-479.322 238.03L-571.907 199.49L-598.161 262.412L-505.574 300.952L-543.166 391.044L-484.942 415.281L-447.35 325.188L-354.765 363.727L-328.511 300.805L-421.098 262.266L-383.506 172.173L-441.73 147.937Z" fill="#EBEBEB"/>
<path d="M-297.143 139.813L-317.699 169.528L-348.236 148.453L-362.592 169.206L-332.055 190.281L-352.611 219.996L-333.407 233.25L-312.851 203.535L-282.314 224.61L-267.958 203.856L-298.495 182.781L-277.939 153.066L-297.143 139.813Z" fill="#EBEBEB"/>
<path d="M-263.054 90.4023L-274.917 92.4072L-276.977 80.2445L-285.263 81.6447L-283.202 93.8074L-295.065 95.8122L-293.769 103.461L-281.906 101.456L-279.846 113.619L-271.561 112.218L-273.621 100.056L-261.758 98.0511L-263.054 90.4023Z" fill="#EBEBEB"/>
<path d="M-184.925 88.749L-195.352 90.511L-197.163 79.821L-204.445 81.0517L-202.635 91.7416L-213.061 93.5036L-211.922 100.226L-201.496 98.4641L-199.684 109.154L-192.402 107.923L-194.214 97.2336L-183.787 95.4714L-184.925 88.749Z" fill="#EBEBEB"/>
<path d="M-585.728 232.996L-616.539 277.535L-662.31 245.947L-683.829 277.053L-638.058 308.642L-668.869 353.181L-640.085 373.046L-609.274 328.507L-563.502 360.095L-541.983 328.989L-587.755 297.4L-556.944 252.861L-585.728 232.996Z" fill="#EBEBEB"/>
<path d="M-608.981 210.713L-621.635 229.005L-640.434 216.031L-649.272 228.807L-630.473 241.781L-643.127 260.073L-631.305 268.232L-618.651 249.94L-599.853 262.913L-591.015 250.137L-609.813 237.164L-597.159 218.871L-608.981 210.713Z" fill="#EBEBEB"/>
<path d="M-428.143 66.9397L-444.09 89.1867L-466.953 72.8379L-478.091 88.3748L-455.228 104.724L-471.175 126.971L-456.798 137.253L-440.851 115.006L-417.989 131.355L-406.85 115.818L-429.713 99.4683L-413.766 77.2214L-428.143 66.9397Z" fill="#EBEBEB"/>
<path d="M-347.957 86.0902L-360.366 103.402L-378.157 90.6794L-386.824 102.77L-369.034 115.492L-381.443 132.804L-370.255 140.804L-357.846 123.493L-340.056 136.215L-331.388 124.125L-349.179 111.402L-336.77 94.0909L-347.957 86.0902Z" fill="#EBEBEB"/>
<path d="M-371.104 23.0649L-371.75 36.8809L-385.947 36.2178L-386.399 45.8658L-372.202 46.5289L-372.849 60.3434L-363.92 60.76L-363.274 46.9456L-349.077 47.6087L-348.624 37.9591L-362.823 37.2976L-362.177 23.4815L-371.104 23.0649Z" fill="#EBEBEB"/>
<path d="M-216.005 167.254L-224.181 178.659L-235.902 170.277L-241.611 178.243L-229.89 186.625L-238.066 198.031L-230.696 203.302L-222.52 191.896L-210.799 200.278L-205.09 192.313L-216.809 183.931L-208.634 172.525L-216.005 167.254Z" fill="#EBEBEB"/>
<path d="M-388.002 192.97L-403.344 216.714L-427.747 200.985L-438.462 217.569L-414.059 233.298L-429.401 257.043L-414.056 266.935L-398.714 243.19L-374.312 258.919L-363.597 242.335L-387.999 226.606L-372.658 202.861L-388.002 192.97Z" fill="#EBEBEB"/>
<path d="M-464.869 210.294L-478.871 222.679L-491.6 208.323L-501.381 216.973L-488.652 231.33L-502.656 243.715L-494.651 252.744L-480.648 240.358L-467.919 254.715L-458.139 246.064L-470.868 231.708L-456.865 219.322L-464.869 210.294Z" fill="#EBEBEB"/>
<path d="M-261.499 261.489L-299.125 284.322L-322.59 245.745L-348.868 261.691L-325.405 300.268L-363.032 323.101L-348.276 347.36L-310.649 324.528L-287.184 363.104L-260.905 347.158L-284.37 308.581L-246.743 285.749L-261.499 261.489Z" fill="#EBEBEB"/>
<path d="M-499.305 131.492L-513.22 150.903L-533.168 136.638L-542.884 150.194L-522.937 164.459L-536.85 183.87L-524.306 192.841L-510.392 173.43L-490.444 187.695L-480.728 174.139L-500.675 159.874L-486.76 140.463L-499.305 131.492Z" fill="#EBEBEB"/>
<path d="M799.813 181.401L812.505 278.178L713.051 291.191L721.916 358.781L821.37 345.768L834.064 442.544L896.601 434.361L883.912 337.584L983.372 324.57L974.504 256.98L875.044 269.994L862.354 173.217L799.813 181.401Z" fill="#EBEBEB"/>
<path d="M920.833 101.972L917.967 137.976L880.966 135.032L878.96 160.178L915.961 163.122L913.096 199.127L936.356 200.979L939.238 164.974L976.239 167.918L978.245 142.772L941.244 139.828L944.11 103.824L920.833 101.972Z" fill="#EBEBEB"/>
<path d="M925.53 42.1494L916.28 49.8255L908.383 40.3333L901.919 45.6924L909.816 55.1846L900.55 62.8607L905.517 68.8289L914.767 61.1544L922.664 70.6466L929.128 65.2859L921.231 55.7937L930.497 48.1192L925.53 42.1494Z" fill="#EBEBEB"/>
<path d="M992.304 1.59818L984.168 8.34399L977.242 -3.05176e-05L971.558 4.71188L978.484 13.0543L970.348 19.8001L974.711 25.0463L982.846 18.3005L989.772 26.6445L995.456 21.9326L988.53 13.5902L996.666 6.84439L992.304 1.59818Z" fill="#EBEBEB"/>
<path d="M770.914 104.514L768.282 131.749L740.294 129.05L738.455 148.071L766.445 150.77L763.812 178.004L781.412 179.701L784.044 152.467L812.034 155.165L813.871 136.144L785.883 133.446L788.515 106.211L770.914 104.514Z" fill="#EBEBEB"/>
<path d="M849.904 80.9327L847.86 102.125L826.081 100.025L824.651 114.827L846.43 116.926L844.381 138.119L858.072 139.44L860.125 118.247L881.906 120.347L883.339 105.546L861.558 103.446L863.612 82.2533L849.904 80.9327Z" fill="#EBEBEB"/>
<path d="M798.248 37.9909L804.622 50.2676L792.005 56.8035L796.458 65.3781L809.074 58.8422L815.449 71.1189L823.384 67.0081L817.009 54.7314L829.625 48.1955L825.173 39.6225L812.556 46.1568L806.181 33.8802L798.248 37.9909Z" fill="#EBEBEB"/>
<path d="M1004.82 85.0879L1003.46 99.0504L989.119 97.6669L988.18 107.418L1002.52 108.802L1001.17 122.764L1010.2 123.634L1011.55 109.672L1025.9 111.056L1026.84 101.304L1012.49 99.9204L1013.84 85.9579L1004.82 85.0879Z" fill="#EBEBEB"/>
<path d="M868.898 193.463L867.545 221.69L838.538 220.299L837.59 240.014L866.605 241.405L865.236 269.633L883.482 270.507L884.835 242.28L913.844 243.671L914.799 223.956L885.791 222.565L887.144 194.338L868.898 193.463Z" fill="#EBEBEB"/>
<path d="M1012.75 189.406L991.651 228.003L951.991 206.373L937.264 233.33L976.924 254.959L955.828 293.556L980.777 307.158L1001.87 268.561L1041.53 290.191L1056.26 263.234L1016.6 241.605L1037.69 203.008L1012.75 189.406Z" fill="#EBEBEB"/>
<path d="M741.742 196.002L739.444 219.764L715.024 217.409L713.421 234.005L737.841 236.36L735.543 260.123L750.901 261.603L753.197 237.841L777.617 240.195L779.222 223.599L754.802 221.245L757.098 197.482L741.742 196.002Z" fill="#EBEBEB"/>
<path d="M1149.54 290.292L1206.6 369.527L1125.18 428.028L1165.03 483.367L1246.45 424.865L1303.52 504.099L1354.72 467.311L1297.66 388.075L1379.09 329.574L1339.24 274.235L1257.81 332.737L1200.74 253.502L1149.54 290.292Z" fill="#EBEBEB"/>
<path d="M1218.48 163.089L1233.02 196.159L1199.04 211.066L1209.2 234.163L1243.17 219.256L1257.71 252.326L1279.09 242.952L1264.56 209.882L1298.53 194.974L1288.37 171.878L1254.4 186.785L1239.86 153.715L1218.48 163.089Z" fill="#EBEBEB"/>
<path d="M1194.26 108.179L1189.74 119.318L1178.3 114.687L1175.14 122.467L1186.59 127.097L1182.07 138.236L1189.27 141.148L1193.79 130.009L1205.23 134.639L1208.39 126.859L1196.94 122.229L1201.46 111.09L1194.26 108.179Z" fill="#EBEBEB"/>
<path d="M1087.64 236.24L1098.23 261.472L1072.31 272.333L1079.7 289.956L1105.63 279.095L1116.22 304.327L1132.54 297.497L1121.93 272.265L1147.87 261.404L1140.47 243.781L1114.53 254.642L1103.94 229.41L1087.64 236.24Z" fill="#EBEBEB"/>
<path d="M1146.04 178.108L1154.27 197.742L1134.1 206.194L1139.86 219.907L1160.03 211.455L1168.28 231.09L1180.97 225.775L1172.72 206.141L1192.9 197.689L1187.15 183.976L1166.96 192.427L1158.73 172.793L1146.04 178.108Z" fill="#EBEBEB"/>
<path d="M1080.17 164.719L1091.6 172.518L1083.6 184.241L1091.59 189.688L1099.6 177.964L1111.03 185.762L1116.08 178.39L1104.63 170.591L1112.65 158.867L1104.66 153.421L1096.65 165.145L1085.22 157.347L1080.17 164.719Z" fill="#EBEBEB"/>
<path d="M1284.44 108.499L1289.87 121.435L1276.58 127.003L1280.38 136.037L1293.68 130.469L1299.11 143.405L1307.46 139.904L1302.04 126.968L1315.33 121.4L1311.52 112.365L1298.23 117.933L1292.8 104.997L1284.44 108.499Z" fill="#EBEBEB"/>
<path d="M1340.88 196.626L1340.61 240.6L1295.41 240.309L1295.22 271.021L1340.41 271.311L1340.12 315.285L1368.54 315.467L1368.82 271.494L1414.03 271.784L1414.22 241.072L1369.03 240.782L1369.3 196.808L1340.88 196.626Z" fill="#EBEBEB"/>
<path d="M260.78 179.69L334.081 244.236L400.412 169.085L451.606 214.164L385.274 289.315L458.576 353.86L416.862 401.12L343.561 336.575L277.23 411.727L226.037 366.647L292.368 291.496L219.066 226.95L260.78 179.69Z" fill="#EBEBEB"/>
<path d="M127.237 235.643L158.747 253.363L176.958 221.057L198.964 233.433L180.754 265.739L212.265 283.459L200.813 303.775L169.303 286.055L151.092 318.36L129.084 305.984L147.295 273.679L115.785 255.959L127.237 235.643Z" fill="#EBEBEB"/>
<path d="M74.925 206.138L86.4679 202.75L82.9876 190.915L91.0485 188.549L94.5305 200.384L106.075 196.996L108.264 204.439L96.7197 207.827L100.202 219.662L92.1391 222.028L88.6571 210.193L77.1142 213.581L74.925 206.138Z" fill="#EBEBEB"/>
<path d="M3.96411 238.832L14.1107 235.854L11.0507 225.452L18.1356 223.373L21.1956 233.775L31.3422 230.797L33.2671 237.339L23.1205 240.316L26.1805 250.719L19.0941 252.798L16.034 242.396L5.88898 245.374L3.96411 238.832Z" fill="#EBEBEB"/>
<path d="M427.531 193.159L474.76 219.718L502.055 171.297L535.041 189.846L507.745 238.268L554.976 264.828L537.811 295.279L490.581 268.719L463.287 317.141L430.3 298.591L457.595 250.169L410.366 223.609L427.531 193.159Z" fill="#EBEBEB"/>
<path d="M438.662 162.954L458.06 173.862L469.27 153.975L482.818 161.593L471.607 181.481L491.004 192.389L483.954 204.895L464.557 193.987L453.347 213.874L439.8 206.255L451.01 186.368L431.612 175.46L438.662 162.954Z" fill="#EBEBEB"/>
<path d="M213.047 112.821L237.139 125.843L250.52 101.143L267.347 110.239L253.964 134.939L278.056 147.961L269.64 163.494L245.548 150.471L232.165 175.171L215.339 166.076L228.723 141.376L204.631 128.353L213.047 112.821Z" fill="#EBEBEB"/>
<path d="M149.36 165.117L168.106 175.251L178.52 156.03L191.613 163.108L181.199 182.328L199.947 192.462L193.397 204.549L174.651 194.415L164.237 213.635L151.143 206.558L161.557 187.338L142.81 177.204L149.36 165.117Z" fill="#EBEBEB"/>
<path d="M142.53 98.3332L149.169 110.47L161.642 103.663L166.278 112.139L153.805 118.946L160.444 131.082L152.602 135.363L145.962 123.226L133.49 130.033L128.853 121.557L141.325 114.75L134.685 102.614L142.53 98.3332Z" fill="#EBEBEB"/>
<path d="M232.229 243.679L256.432 258.313L271.471 233.498L288.376 243.718L273.337 268.534L297.542 283.168L288.085 298.774L263.88 284.14L248.841 308.955L231.936 298.734L246.975 273.919L222.77 259.285L232.229 243.679Z" fill="#EBEBEB"/>
<path d="M308.926 225.625L326.945 230.633L332.093 212.158L344.677 215.656L339.531 234.13L357.551 239.139L354.314 250.757L336.294 245.749L331.147 264.224L318.563 260.726L323.709 242.251L305.689 237.243L308.926 225.625Z" fill="#EBEBEB"/>
<path d="M305.326 139.719L326.347 151.081L338.023 129.53L352.704 137.466L341.028 159.017L362.049 170.379L354.704 183.932L333.685 172.569L322.008 194.12L307.327 186.185L319.004 164.634L297.983 153.271L305.326 139.719Z" fill="#EBEBEB"/>
</svg>
