<svg width="67" height="69" viewBox="0 0 67 69" fill="none" xmlns="http://www.w3.org/2000/svg">
<path d="M10.2756 57.3774L28.3324 41.4168L44.6722 60L57.283 48.8529L40.9432 30.2697L59 14.3091L48.7244 2.62285L30.6676 18.5834L14.3278 0L1.71704 11.1473L18.0568 29.7305L0 45.6911L10.2756 57.3774Z" fill="#4B4A4A"/>
<path d="M53.7805 60.9014L58.6797 58.3519L61.5109 63L64.9324 61.2194L62.1012 56.5712L67 54.0216L65.2195 51.0986L60.3207 53.6481L57.4895 49L54.068 50.7807L56.8992 55.4288L52 57.9784L53.7805 60.9014Z" fill="#C5E824"/>
<path d="M21.7192 66.4762L26.6409 63.6615L29.3749 69L32.8122 67.0342L30.0783 61.6957L35 58.881L33.2804 55.5238L28.3591 58.3385L25.6251 53L22.1878 54.9658L24.9217 60.3043L20 63.119L21.7192 66.4762Z" fill="#E5558D"/>
</svg>
