<svg width="287" height="185" viewBox="0 0 287 185" fill="none" xmlns="http://www.w3.org/2000/svg">
<g clip-path="url(#clip0)">
<path d="M21.9723 84.0002C21.9723 84.0002 -31.4419 19.14 28.3311 2.60707C88.1042 -13.9259 109.088 53.4777 149.785 55.3854C190.481 57.293 238.173 29.9501 250.89 29.9501C263.608 29.9501 286.5 31.2218 285.228 53.4777C283.956 75.7337 267.423 96.0819 266.787 106.892C266.152 117.702 281.413 146.953 283.956 153.947C286.5 160.942 289.679 180.654 275.69 181.926C268.53 182.562 227.681 190.511 172.359 174.296C130.495 162.026 64.9707 183.198 49.6936 183.198C44.7461 183.21 39.9177 181.681 35.8791 178.823C24.6557 170.84 6.79694 150.787 22.6082 109.435C30.8747 87.8155 21.9723 84.0002 21.9723 84.0002Z" fill="#F72963" fill-opacity="0.11"/>
<path d="M75.3869 94.4923C84.3422 94.4923 91.6019 87.2326 91.6019 78.2773C91.6019 69.322 84.3422 62.0623 75.3869 62.0623C66.4316 62.0623 59.1719 69.322 59.1719 78.2773C59.1719 87.2326 66.4316 94.4923 75.3869 94.4923Z" fill="white"/>
<path d="M55.6743 91.9488C61.6445 91.9488 66.4843 87.109 66.4843 81.1388C66.4843 75.1685 61.6445 70.3287 55.6743 70.3287C49.7041 70.3287 44.8643 75.1685 44.8643 81.1388C44.8643 87.109 49.7041 91.9488 55.6743 91.9488Z" fill="white"/>
<path d="M92.5556 91.9488C98.3502 91.9488 103.048 87.2513 103.048 81.4567C103.048 75.6621 98.3502 70.9646 92.5556 70.9646C86.7609 70.9646 82.0635 75.6621 82.0635 81.4567C82.0635 87.2513 86.7609 91.9488 92.5556 91.9488Z" fill="white"/>
<path d="M223.23 144.091C232.185 144.091 239.445 136.831 239.445 127.876C239.445 118.921 232.185 111.661 223.23 111.661C214.274 111.661 207.015 118.921 207.015 127.876C207.015 136.831 214.274 144.091 223.23 144.091Z" fill="white"/>
<path d="M203.199 140.276C209.169 140.276 214.009 135.436 214.009 129.466C214.009 123.496 209.169 118.656 203.199 118.656C197.229 118.656 192.389 123.496 192.389 129.466C192.389 135.436 197.229 140.276 203.199 140.276Z" fill="white"/>
<path d="M241.035 141.23C246.829 141.23 251.527 136.532 251.527 130.738C251.527 124.943 246.829 120.246 241.035 120.246C235.24 120.246 230.542 124.943 230.542 130.738C230.542 136.532 235.24 141.23 241.035 141.23Z" fill="white"/>
<path d="M48.3618 160.306C54.332 160.306 59.1718 155.466 59.1718 149.496C59.1718 143.526 54.332 138.686 48.3618 138.686C42.3916 138.686 37.5518 143.526 37.5518 149.496C37.5518 155.466 42.3916 160.306 48.3618 160.306Z" fill="white"/>
<path d="M61.0793 159.034C65.2936 159.034 68.7099 155.618 68.7099 151.404C68.7099 147.19 65.2936 143.773 61.0793 143.773C56.8651 143.773 53.4487 147.19 53.4487 151.404C53.4487 155.618 56.8651 159.034 61.0793 159.034Z" fill="white"/>
<path d="M74.1147 125.333C74.1147 125.333 81.4274 116.112 89.058 126.286C89.058 126.286 96.3707 115.476 100.822 124.697" stroke="#F72963" stroke-width="1.58971" stroke-linecap="round" stroke-linejoin="round"/>
<path d="M56.3101 117.018C56.3101 117.018 61.5625 110.389 67.0406 117.702C67.0406 117.702 72.293 109.938 75.4883 116.561" stroke="#F72963" stroke-width="1.58971" stroke-linecap="round" stroke-linejoin="round"/>
<path d="M225.773 65.8298C225.773 65.8298 231.025 59.2071 236.503 66.5134C236.503 66.5134 241.756 58.7493 244.951 65.372" stroke="#F72963" stroke-width="1.58971" stroke-linecap="round" stroke-linejoin="round"/>
<path d="M22.2905 33.3998C22.2905 33.3998 27.5429 26.7707 33.0211 34.0833C33.0211 34.0833 38.2735 26.3192 41.4688 32.9419" stroke="#F72963" stroke-width="1.58971" stroke-linecap="round" stroke-linejoin="round"/>
</g>
<defs>
<clipPath id="clip0">
<rect width="286.188" height="184.438" fill="white"/>
</clipPath>
</defs>
</svg>
