<svg width="112" height="45" viewBox="0 0 112 45" fill="none" xmlns="http://www.w3.org/2000/svg">
<path fill-rule="evenodd" clip-rule="evenodd" d="M30.72 28.0715V39.8572L20.48 33.9643L30.72 28.0715ZM30.72 28.0715V16.2857L40.96 22.1786L30.72 28.0715ZM20.48 33.9643L10.24 39.8572V28.0715L20.48 33.9643ZM10.24 28.0715L0 22.1786L10.24 16.2857V28.0715Z" fill="#302F2F"/>
<path fill-rule="evenodd" clip-rule="evenodd" d="M30.72 16.2857V4.5L20.48 10.3929L30.72 16.2857ZM30.72 16.2857V28.0714L40.96 22.1786L30.72 16.2857ZM20.48 10.3929L10.24 4.5V16.2857L20.48 10.3929ZM10.24 16.2857L0 22.1786L10.24 28.0714V16.2857Z" fill="#302F2F"/>
<path d="M58.1888 27.6429L53.7804 22.7366V27.6429H52.3827V16.8891H53.7804V21.8726L58.2041 16.8891H59.9705L55.1168 22.2737L60.0166 27.6429H58.1888ZM71.2083 25.2514H66.5389L65.6787 27.6429H64.2041L68.0749 16.9509H69.6877L73.543 27.6429H72.0685L71.2083 25.2514ZM70.8089 24.1097L68.8736 18.6789L66.9382 24.1097H70.8089ZM84.1696 27.6429L81.6198 23.2457H79.9302V27.6429H78.5325V16.8891H81.9885C82.7974 16.8891 83.4784 17.028 84.0313 17.3057C84.5945 17.5834 85.0144 17.9589 85.2909 18.432C85.5673 18.9051 85.7056 19.4451 85.7056 20.052C85.7056 20.7926 85.4905 21.4457 85.0605 22.0114C84.6406 22.5771 84.0057 22.9526 83.1558 23.1377L85.8438 27.6429H84.1696ZM79.9302 22.1194H81.9885C82.7462 22.1194 83.3145 21.9343 83.6934 21.564C84.0723 21.1834 84.2617 20.6794 84.2617 20.052C84.2617 19.4143 84.0723 18.9206 83.6934 18.5709C83.3248 18.2211 82.7565 18.0463 81.9885 18.0463H79.9302V22.1194ZM92.5779 18.0309V21.6257H96.4793V22.7829H92.5779V26.4857H96.9401V27.6429H91.1801V16.8737H96.9401V18.0309H92.5779ZM110.774 27.6429H109.377L103.755 19.08V27.6429H102.357V16.8737H103.755L109.377 25.4211V16.8737H110.774V27.6429Z" fill="black"/>
</svg>
